<svg width="691" height="191" viewBox="0 0 691 191" fill="none" xmlns="http://www.w3.org/2000/svg">
<path d="M198.119 0.229644C214.675 0.22974 225.691 11.2642 222.745 24.8927C222.292 27.0178 221.512 29.0689 220.479 31.0334C223.702 29.7237 227.064 29.007 230.413 29.007C244.602 29.0072 253.314 41.8821 249.864 57.7716C246.428 73.6591 232.141 86.5319 217.954 86.5353C214.595 86.5343 211.551 85.8186 208.896 84.5099C209.085 86.4744 208.959 88.5254 208.506 90.6505C205.56 104.267 189.747 115.313 173.203 115.313C156.66 115.313 145.63 104.279 148.576 90.6505C149.029 88.5254 149.81 86.4744 150.843 84.5099C147.62 85.8196 144.258 86.5363 140.909 86.5363C126.72 86.5363 118.007 73.6612 121.457 57.7716C124.894 41.8821 139.184 29.0072 153.373 29.007C156.735 29.007 159.782 29.7236 162.426 31.0334C162.237 29.0688 162.363 27.0179 162.816 24.8927C165.763 11.2642 181.576 0.229644 198.119 0.229644ZM541.566 0.229644C559.407 0.229644 570.133 13.9453 565.513 30.8605C561.119 46.9477 544.437 60.1314 527.466 61.3918C534.894 66.4947 538.28 75.7121 535.41 86.2267C531.029 102.277 513.742 115.301 496.809 115.301C479.875 115.301 469.689 102.289 474.083 86.2267C478.213 71.128 493.737 58.7101 509.663 57.2892C501.555 51.9762 497.828 42.129 500.9 30.8605C505.521 13.9453 523.726 0.229731 541.566 0.229644ZM395.118 0.872222C407.696 0.00731668 448.136 0.00731185 462.526 0.872222C474.26 1.57667 483.979 10.3002 483.979 21.9269C483.979 29.5133 479.888 36.1361 473.757 39.8429C479.863 43.5374 483.954 50.1357 483.979 57.6974C484.017 69.3241 473.794 78.8261 461.947 78.8263H446.436C438.277 78.8264 431.907 85.4242 431.97 93.4308V93.6037C431.97 105.231 422.489 113.608 413.475 114.658C405.429 115.597 397.837 115.437 391.807 114.51C382.855 113.114 373.664 105.218 373.664 93.591C373.664 86.0046 377.756 79.3817 383.888 75.675C377.769 71.9682 373.664 65.3454 373.664 57.7589C373.664 50.1725 377.756 43.5497 383.888 39.8429C377.769 36.1362 373.664 29.5134 373.664 21.9269C373.664 10.3001 383.208 1.68771 395.118 0.872222ZM310.89 0.229644C342.088 0.229644 367.37 25.0406 367.37 55.6584V113.188H322.436V46.2316H299.408V113.188H254.41L254.41 55.6584C254.41 25.0407 279.691 0.229842 310.89 0.229644ZM646.002 46.5031L691 46.5031V113.188L619.412 113.188C588.226 113.188 562.933 88.3769 562.933 57.7589C562.933 27.1411 588.226 2.33023 619.412 2.33023L646.002 2.33023V46.5031ZM117.189 46.4406L63.7695 46.4406C57.4115 46.4406 52.2617 51.4948 52.2617 57.7345C52.2618 63.9742 57.4116 69.0275 63.7695 69.0275V69.0031H117.189V113.175L21.6934 113.175L21.6934 90.2179H0L0 25.3L21.7686 25.3L21.7686 2.33023L117.189 2.33023L117.189 46.4406ZM217.961 86.5363H217.948C217.95 86.5363 217.952 86.5353 217.954 86.5353C217.956 86.5353 217.959 86.5363 217.961 86.5363ZM203.13 46.2433C198.27 48.3438 192.881 49.5421 187.43 49.5421C181.978 49.5421 177.118 48.3438 173.165 46.2433C173.782 49.7647 173.694 53.6692 172.812 57.7589C171.931 61.8486 170.32 65.7532 168.18 69.2746C173.039 67.1741 178.428 65.9757 183.88 65.9757C189.331 65.9758 194.191 67.1741 198.145 69.2746C197.528 65.7532 197.616 61.861 198.497 57.7589C199.378 53.6693 200.99 49.7647 203.13 46.2433ZM619.399 46.5031C613.067 46.5031 607.93 51.544 607.93 57.7589C607.93 63.974 613.067 69.0148 619.399 69.0148H645.99V46.5031L619.399 46.5031Z" fill="black"/>
<rect width="238.35" height="63.9771" transform="translate(0 126.156)" fill="black"/>
<path d="M17.3528 172.145L9.47888 143.754H13.9842L19.5153 165.74H19.7787L25.5317 143.754H29.9954L35.7484 165.754H36.0117L41.529 143.754H46.0482L38.1604 172.145H33.8492L27.8744 150.88H27.6526L21.6779 172.145H17.3528ZM52.9404 172.616C51.5911 172.616 50.3712 172.367 49.2807 171.867C48.1901 171.359 47.3261 170.624 46.6884 169.663C46.0599 168.702 45.7457 167.524 45.7457 166.128C45.7457 164.927 45.9768 163.938 46.4388 163.162C46.9009 162.386 47.5247 161.771 48.3103 161.318C49.0958 160.865 49.9738 160.523 50.9442 160.292C51.9145 160.061 52.9034 159.886 53.9107 159.765C55.1861 159.618 56.2212 159.497 57.016 159.405C57.8107 159.303 58.3883 159.142 58.7488 158.92C59.1092 158.698 59.2894 158.338 59.2894 157.839V157.742C59.2894 156.531 58.9475 155.593 58.2636 154.927C57.5889 154.262 56.5816 153.929 55.2415 153.929C53.8461 153.929 52.7463 154.239 51.9423 154.858C51.1475 155.468 50.5976 156.147 50.2926 156.896L46.3973 156.009C46.8593 154.715 47.534 153.671 48.4212 152.876C49.3176 152.072 50.3481 151.49 51.5125 151.129C52.677 150.759 53.9015 150.575 55.1861 150.575C56.0363 150.575 56.9374 150.676 57.8893 150.88C58.8504 151.074 59.7469 151.434 60.5786 151.961C61.4196 152.488 62.1081 153.241 62.6441 154.22C63.1802 155.191 63.4482 156.452 63.4482 158.005V172.145H59.4003V169.234H59.234C58.9659 169.77 58.5639 170.296 58.0279 170.814C57.4919 171.331 56.8034 171.761 55.9624 172.103C55.1214 172.445 54.1141 172.616 52.9404 172.616ZM53.8414 169.289C54.9874 169.289 55.967 169.063 56.7803 168.61C57.6028 168.157 58.2266 167.565 58.6517 166.835C59.0861 166.096 59.3033 165.306 59.3033 164.465V161.72C59.1554 161.868 58.8689 162.007 58.4438 162.136C58.0279 162.256 57.552 162.362 57.016 162.455C56.4799 162.538 55.9578 162.617 55.4495 162.69C54.9412 162.755 54.5161 162.811 54.1741 162.857C53.3701 162.958 52.6354 163.129 51.97 163.37C51.3138 163.61 50.7871 163.957 50.3897 164.409C50.0015 164.853 49.8074 165.444 49.8074 166.184C49.8074 167.21 50.1863 167.986 50.9442 168.513C51.702 169.03 52.6677 169.289 53.8414 169.289ZM78.1276 150.852V154.179H66.4969V150.852H78.1276ZM69.616 145.75H73.7609V165.893C73.7609 166.697 73.881 167.302 74.1213 167.709C74.3616 168.106 74.6712 168.379 75.0501 168.527C75.4383 168.665 75.8588 168.735 76.3116 168.735C76.6443 168.735 76.9354 168.711 77.1849 168.665C77.4345 168.619 77.6285 168.582 77.7672 168.554L78.5157 171.978C78.2755 172.071 77.9335 172.163 77.4899 172.256C77.0463 172.357 76.4918 172.413 75.8264 172.422C74.7359 172.44 73.7193 172.246 72.7767 171.84C71.834 171.433 71.0716 170.805 70.4893 169.954C69.9071 169.104 69.616 168.037 69.616 166.752V145.75ZM90.6722 172.574C88.6113 172.574 86.8369 172.108 85.349 171.174C83.8703 170.232 82.7336 168.933 81.9388 167.279C81.144 165.625 80.7466 163.73 80.7466 161.595C80.7466 159.433 81.1533 157.524 81.9665 155.87C82.7798 154.207 83.9258 152.908 85.4044 151.975C86.8831 151.041 88.6252 150.575 90.6306 150.575C92.2479 150.575 93.6896 150.875 94.9557 151.476C96.2218 152.067 97.243 152.899 98.0193 153.971C98.8049 155.043 99.2716 156.295 99.4194 157.728H95.3855C95.1637 156.73 94.6554 155.87 93.8606 155.149C93.075 154.428 92.0215 154.068 90.6999 154.068C89.5447 154.068 88.5328 154.373 87.664 154.983C86.8046 155.584 86.1345 156.443 85.654 157.561C85.1734 158.67 84.9331 159.983 84.9331 161.498C84.9331 163.051 85.1688 164.391 85.6401 165.518C86.1114 166.646 86.7768 167.519 87.6363 168.138C88.505 168.758 89.5262 169.067 90.6999 169.067C91.4855 169.067 92.1971 168.924 92.8348 168.637C93.4817 168.342 94.0223 167.921 94.4567 167.376C94.9003 166.831 95.2099 166.175 95.3855 165.408H99.4194C99.2716 166.785 98.8234 168.014 98.0748 169.095C97.3262 170.176 96.3235 171.026 95.0666 171.646C93.819 172.265 92.3542 172.574 90.6722 172.574ZM107.216 159.502V172.145H103.071V143.754H107.161V154.318H107.424C107.923 153.172 108.686 152.261 109.711 151.587C110.737 150.912 112.077 150.575 113.732 150.575C115.192 150.575 116.467 150.875 117.558 151.476C118.657 152.076 119.508 152.973 120.108 154.165C120.718 155.348 121.023 156.827 121.023 158.601V172.145H116.878V159.1C116.878 157.538 116.476 156.328 115.672 155.468C114.868 154.599 113.75 154.165 112.318 154.165C111.338 154.165 110.46 154.373 109.684 154.789C108.917 155.205 108.311 155.815 107.868 156.619C107.433 157.413 107.216 158.375 107.216 159.502ZM135.657 172.145V143.754H145.776C147.985 143.754 149.815 144.156 151.266 144.96C152.717 145.764 153.803 146.864 154.524 148.26C155.244 149.646 155.605 151.208 155.605 152.945C155.605 154.692 155.24 156.263 154.51 157.658C153.789 159.045 152.698 160.144 151.238 160.958C149.787 161.762 147.962 162.164 145.762 162.164H138.803V158.532H145.374C146.77 158.532 147.902 158.291 148.771 157.811C149.639 157.321 150.277 156.656 150.684 155.815C151.09 154.974 151.294 154.017 151.294 152.945C151.294 151.873 151.09 150.921 150.684 150.089C150.277 149.258 149.635 148.606 148.757 148.135C147.888 147.664 146.742 147.428 145.319 147.428H139.94V172.145H135.657ZM165.519 172.616C164.17 172.616 162.95 172.367 161.859 171.867C160.769 171.359 159.905 170.624 159.267 169.663C158.639 168.702 158.324 167.524 158.324 166.128C158.324 164.927 158.555 163.938 159.017 163.162C159.48 162.386 160.103 161.771 160.889 161.318C161.674 160.865 162.552 160.523 163.523 160.292C164.493 160.061 165.482 159.886 166.489 159.765C167.765 159.618 168.8 159.497 169.595 159.405C170.389 159.303 170.967 159.142 171.327 158.92C171.688 158.698 171.868 158.338 171.868 157.839V157.742C171.868 156.531 171.526 155.593 170.842 154.927C170.168 154.262 169.16 153.929 167.82 153.929C166.425 153.929 165.325 154.239 164.521 154.858C163.726 155.468 163.176 156.147 162.871 156.896L158.976 156.009C159.438 154.715 160.113 153.671 161 152.876C161.896 152.072 162.927 151.49 164.091 151.129C165.256 150.759 166.48 150.575 167.765 150.575C168.615 150.575 169.516 150.676 170.468 150.88C171.429 151.074 172.325 151.434 173.157 151.961C173.998 152.488 174.687 153.241 175.223 154.22C175.759 155.191 176.027 156.452 176.027 158.005V172.145H171.979V169.234H171.813C171.545 169.77 171.143 170.296 170.607 170.814C170.071 171.331 169.382 171.761 168.541 172.103C167.7 172.445 166.693 172.616 165.519 172.616ZM166.42 169.289C167.566 169.289 168.546 169.063 169.359 168.61C170.181 168.157 170.805 167.565 171.23 166.835C171.665 166.096 171.882 165.306 171.882 164.465V161.72C171.734 161.868 171.448 162.007 171.022 162.136C170.607 162.256 170.131 162.362 169.595 162.455C169.059 162.538 168.536 162.617 168.028 162.69C167.52 162.755 167.095 162.811 166.753 162.857C165.949 162.958 165.214 163.129 164.549 163.37C163.892 163.61 163.366 163.957 162.968 164.409C162.58 164.853 162.386 165.444 162.386 166.184C162.386 167.21 162.765 167.986 163.523 168.513C164.281 169.03 165.246 169.289 166.42 169.289ZM180.767 172.145V150.852H184.773V154.234H184.995C185.383 153.088 186.067 152.187 187.047 151.531C188.035 150.866 189.154 150.533 190.401 150.533C190.66 150.533 190.965 150.542 191.316 150.561C191.677 150.579 191.958 150.602 192.162 150.63V154.595C191.995 154.549 191.7 154.498 191.275 154.442C190.849 154.378 190.424 154.345 189.999 154.345C189.02 154.345 188.146 154.553 187.379 154.969C186.621 155.376 186.021 155.944 185.577 156.674C185.133 157.395 184.912 158.218 184.912 159.142V172.145H180.767ZM206.165 150.852V154.179H194.535V150.852H206.165ZM197.654 145.75H201.799V165.893C201.799 166.697 201.919 167.302 202.159 167.709C202.399 168.106 202.709 168.379 203.088 168.527C203.476 168.665 203.897 168.735 204.349 168.735C204.682 168.735 204.973 168.711 205.223 168.665C205.472 168.619 205.666 168.582 205.805 168.554L206.554 171.978C206.313 172.071 205.971 172.163 205.528 172.256C205.084 172.357 204.53 172.413 203.864 172.422C202.774 172.44 201.757 172.246 200.814 171.84C199.872 171.433 199.109 170.805 198.527 169.954C197.945 169.104 197.654 168.037 197.654 166.752V145.75ZM212.59 180.13C211.971 180.13 211.407 180.079 210.898 179.977C210.39 179.885 210.011 179.783 209.762 179.672L210.76 176.276C211.518 176.479 212.192 176.567 212.784 176.539C213.375 176.511 213.897 176.29 214.35 175.874C214.812 175.458 215.219 174.779 215.57 173.836L216.083 172.422L208.292 150.852H212.728L218.121 167.376H218.343L223.735 150.852H228.185L219.41 174.987C219.003 176.096 218.486 177.034 217.857 177.801C217.229 178.577 216.48 179.159 215.612 179.547C214.743 179.935 213.736 180.13 212.59 180.13Z" fill="white"/>
<rect x="238.35" y="126.156" width="247.233" height="63.9771" rx="31.9885" fill="black"/>
<path d="M268.579 143.766V172.156H264.282V148.063H264.116L257.323 152.499V148.396L264.407 143.766H268.579ZM289.178 172.628C286.988 172.618 285.116 172.041 283.564 170.895C282.011 169.749 280.824 168.081 280.001 165.89C279.179 163.7 278.767 161.062 278.767 157.975C278.767 154.897 279.179 152.268 280.001 150.087C280.833 147.906 282.025 146.243 283.578 145.097C285.139 143.951 287.006 143.378 289.178 143.378C291.35 143.378 293.212 143.955 294.765 145.11C296.317 146.256 297.505 147.92 298.327 150.101C299.159 152.273 299.575 154.897 299.575 157.975C299.575 161.071 299.164 163.714 298.341 165.904C297.519 168.085 296.331 169.753 294.778 170.909C293.226 172.055 291.359 172.628 289.178 172.628ZM289.178 168.926C291.1 168.926 292.602 167.988 293.683 166.112C294.774 164.236 295.319 161.524 295.319 157.975C295.319 155.618 295.07 153.627 294.571 152C294.081 150.364 293.374 149.126 292.45 148.285C291.535 147.435 290.444 147.01 289.178 147.01C287.265 147.01 285.763 147.952 284.673 149.838C283.582 151.723 283.032 154.435 283.023 157.975C283.023 160.341 283.268 162.342 283.758 163.977C284.257 165.604 284.964 166.838 285.879 167.679C286.794 168.51 287.893 168.926 289.178 168.926ZM306.824 172.42C306.066 172.42 305.415 172.152 304.869 171.616C304.324 171.07 304.052 170.414 304.052 169.647C304.052 168.889 304.324 168.242 304.869 167.706C305.415 167.161 306.066 166.888 306.824 166.888C307.582 166.888 308.233 167.161 308.779 167.706C309.324 168.242 309.597 168.889 309.597 169.647C309.597 170.155 309.467 170.622 309.208 171.047C308.959 171.463 308.626 171.796 308.21 172.045C307.794 172.295 307.332 172.42 306.824 172.42ZM324.404 172.628C322.214 172.618 320.342 172.041 318.79 170.895C317.237 169.749 316.05 168.081 315.227 165.89C314.405 163.7 313.993 161.062 313.993 157.975C313.993 154.897 314.405 152.268 315.227 150.087C316.059 147.906 317.251 146.243 318.804 145.097C320.366 143.951 322.232 143.378 324.404 143.378C326.576 143.378 328.438 143.955 329.991 145.11C331.543 146.256 332.731 147.92 333.553 150.101C334.385 152.273 334.801 154.897 334.801 157.975C334.801 161.071 334.39 163.714 333.567 165.904C332.745 168.085 331.557 169.753 330.005 170.909C328.452 172.055 326.585 172.628 324.404 172.628ZM324.404 168.926C326.326 168.926 327.828 167.988 328.91 166.112C330 164.236 330.545 161.524 330.545 157.975C330.545 155.618 330.296 153.627 329.797 152C329.307 150.364 328.6 149.126 327.676 148.285C326.761 147.435 325.67 147.01 324.404 147.01C322.491 147.01 320.989 147.952 319.899 149.838C318.808 151.723 318.258 154.435 318.249 157.975C318.249 160.341 318.494 162.342 318.984 163.977C319.483 165.604 320.19 166.838 321.105 167.679C322.02 168.51 323.12 168.926 324.404 168.926ZM349.286 172.544C347.549 172.544 345.987 172.212 344.601 171.546C343.224 170.872 342.124 169.947 341.302 168.774C340.479 167.6 340.04 166.26 339.985 164.754H344.143C344.245 165.974 344.786 166.976 345.765 167.762C346.745 168.547 347.919 168.94 349.286 168.94C350.377 168.94 351.343 168.691 352.184 168.192C353.034 167.683 353.699 166.986 354.18 166.098C354.67 165.211 354.915 164.199 354.915 163.062C354.915 161.907 354.665 160.877 354.166 159.971C353.667 159.065 352.978 158.354 352.101 157.836C351.232 157.319 350.234 157.055 349.106 157.046C348.247 157.046 347.383 157.194 346.514 157.49C345.645 157.785 344.943 158.174 344.407 158.654L340.484 158.072L342.078 143.766H357.687V147.439H345.641L344.74 155.383H344.906C345.46 154.847 346.195 154.398 347.11 154.038C348.034 153.678 349.023 153.497 350.077 153.497C351.805 153.497 353.344 153.909 354.693 154.731C356.051 155.554 357.119 156.676 357.895 158.1C358.681 159.514 359.069 161.14 359.06 162.979C359.069 164.818 358.653 166.459 357.812 167.9C356.98 169.342 355.825 170.479 354.346 171.311C352.877 172.133 351.19 172.544 349.286 172.544ZM367.002 172.42C366.244 172.42 365.592 172.152 365.047 171.616C364.502 171.07 364.229 170.414 364.229 169.647C364.229 168.889 364.502 168.242 365.047 167.706C365.592 167.161 366.244 166.888 367.002 166.888C367.76 166.888 368.411 167.161 368.956 167.706C369.502 168.242 369.774 168.889 369.774 169.647C369.774 170.155 369.645 170.622 369.386 171.047C369.137 171.463 368.804 171.796 368.388 172.045C367.972 172.295 367.51 172.42 367.002 172.42ZM375.336 172.156V169.051L384.942 159.098C385.968 158.016 386.814 157.069 387.479 156.256C388.154 155.433 388.658 154.653 388.99 153.913C389.323 153.174 389.489 152.388 389.489 151.557C389.489 150.614 389.267 149.801 388.824 149.117C388.38 148.424 387.775 147.892 387.008 147.523C386.241 147.144 385.377 146.954 384.416 146.954C383.399 146.954 382.512 147.162 381.754 147.578C380.996 147.994 380.414 148.581 380.007 149.339C379.601 150.096 379.397 150.984 379.397 152H375.308C375.308 150.272 375.705 148.761 376.5 147.467C377.295 146.173 378.385 145.171 379.772 144.459C381.158 143.738 382.734 143.378 384.499 143.378C386.282 143.378 387.853 143.733 389.212 144.445C390.58 145.147 391.647 146.109 392.414 147.328C393.181 148.539 393.565 149.907 393.565 151.432C393.565 152.485 393.366 153.516 392.969 154.523C392.581 155.53 391.901 156.653 390.931 157.892C389.961 159.121 388.611 160.613 386.883 162.369L381.241 168.275V168.483H394.022V172.156H375.336ZM409.533 172.628C407.343 172.618 405.472 172.041 403.919 170.895C402.367 169.749 401.179 168.081 400.357 165.89C399.534 163.7 399.123 161.062 399.123 157.975C399.123 154.897 399.534 152.268 400.357 150.087C401.188 147.906 402.38 146.243 403.933 145.097C405.495 143.951 407.362 143.378 409.533 143.378C411.705 143.378 413.567 143.955 415.12 145.11C416.673 146.256 417.86 147.92 418.683 150.101C419.515 152.273 419.93 154.897 419.93 157.975C419.93 161.071 419.519 163.714 418.697 165.904C417.874 168.085 416.687 169.753 415.134 170.909C413.581 172.055 411.715 172.628 409.533 172.628ZM409.533 168.926C411.456 168.926 412.958 167.988 414.039 166.112C415.129 164.236 415.675 161.524 415.675 157.975C415.675 155.618 415.425 153.627 414.926 152C414.436 150.364 413.729 149.126 412.805 148.285C411.89 147.435 410.8 147.01 409.533 147.01C407.62 147.01 406.119 147.952 405.028 149.838C403.938 151.723 403.388 154.435 403.379 157.975C403.379 160.341 403.623 162.342 404.113 163.977C404.612 165.604 405.319 166.838 406.234 167.679C407.149 168.51 408.249 168.926 409.533 168.926ZM425.239 172.156V169.051L434.845 159.098C435.871 158.016 436.717 157.069 437.382 156.256C438.057 155.433 438.561 154.653 438.893 153.913C439.226 153.174 439.392 152.388 439.392 151.557C439.392 150.614 439.171 149.801 438.727 149.117C438.283 148.424 437.678 147.892 436.911 147.523C436.144 147.144 435.28 146.954 434.319 146.954C433.302 146.954 432.415 147.162 431.657 147.578C430.899 147.994 430.317 148.581 429.91 149.339C429.504 150.096 429.3 150.984 429.3 152H425.211C425.211 150.272 425.608 148.761 426.403 147.467C427.198 146.173 428.289 145.171 429.675 144.459C431.061 143.738 432.637 143.378 434.402 143.378C436.186 143.378 437.757 143.733 439.115 144.445C440.483 145.147 441.55 146.109 442.317 147.328C443.084 148.539 443.468 149.907 443.468 151.432C443.468 152.485 443.269 153.516 442.872 154.523C442.484 155.53 441.804 156.653 440.834 157.892C439.864 159.121 438.514 160.613 436.786 162.369L431.144 168.275V168.483H443.925V172.156H425.239ZM459.367 172.544C457.63 172.544 456.068 172.212 454.682 171.546C453.305 170.872 452.205 169.947 451.382 168.774C450.56 167.6 450.121 166.26 450.066 164.754H454.224C454.326 165.974 454.867 166.976 455.846 167.762C456.826 168.547 458 168.94 459.367 168.94C460.458 168.94 461.424 168.691 462.265 168.192C463.115 167.683 463.78 166.986 464.261 166.098C464.751 165.211 464.995 164.199 464.995 163.062C464.995 161.907 464.746 160.877 464.247 159.971C463.748 159.065 463.059 158.354 462.181 157.836C461.313 157.319 460.315 157.055 459.187 157.046C458.328 157.046 457.464 157.194 456.595 157.49C455.726 157.785 455.024 158.174 454.488 158.654L450.565 158.072L452.159 143.766H467.768V147.439H455.721L454.82 155.383H454.987C455.541 154.847 456.276 154.398 457.191 154.038C458.115 153.678 459.104 153.497 460.157 153.497C461.886 153.497 463.424 153.909 464.774 154.731C466.132 155.554 467.2 156.676 467.976 158.1C468.761 159.514 469.15 161.14 469.14 162.979C469.15 164.818 468.734 166.459 467.893 167.9C467.061 169.342 465.906 170.479 464.427 171.311C462.958 172.133 461.271 172.544 459.367 172.544Z" fill="white"/>
</svg>
